# xmcd CD database file
#
# Track frame offsets:
#	150
#	11807
#	27334
#	43561
#	55572
#	69517
#	84760
#	107454
#	121158
#	132838
#	147375
#	161300
#	174198
#	187481
#	200753
#	213071
#	226591
#	240568
#	255401
#	278489
#	292896
#
# Disc length: 4254 seconds
#
# Revision: 0
# Processed by: cddbd v1.5.1PL0 Copyright (c) Steve Scherf et al.
# Submitted via: CDex 1.51
#
DISCID=10109c15
DTITLE=Louis Armstrong - What a wonderful world
DYEAR=2004
DGENRE=Jazz
TTITLE0=HWAT A WONDERFUL WORLD
TTITLE1=MACK THE KNIFE
TTITLE2=C'EST SI BON
TTITLE3=JEEPERS CREEPERS
TTITLE4=THAT LUCKY OLD SUN
TTITLE5=I'M CONFESSIN'
TTITLE6=ROYAL GARDEN BLUES
TTITLE7=SAINT LOUIS BLUES
TTITLE8=MUSKRAT RAMBLE
TTITLE9=WILLIE THE WEEPER
TTITLE10=WHERE THE BLUES WERE BORN IN NEW ORLEANS
TTITLE11=SWING THAT MUSIC
TTITLE12=SUNNY SIDE OF THE STREET
TTITLE13=AIN'T MISBEHAVIN
TTITLE14=WHEN THE SAINTS GO MARCHING IN
TTITLE15=YOU WON'T BE SATISFIED (with Ella Fitzgerald)
TTITLE16=YOU RASCAL - VIEILLE CANAILLE (with Louis Jordan)
TTITLE17=ON BLUEBERRY HILL (with Bing Crosby)
TTITLE18=ROCKIN CHAIR (with Jack Teagarden)
TTITLE19=THE SONG IS ENDED (with The Mills Brothers)
TTITLE20=NOW YOU HAVE JAZZ - bonus track
EXTD=YEAR: 2004
EXTT0=
EXTT1=
EXTT2=
EXTT3=
EXTT4=
EXTT5=
EXTT6=
EXTT7=
EXTT8=
EXTT9=
EXTT10=
EXTT11=
EXTT12=
EXTT13=
EXTT14=
EXTT15=
EXTT16=
EXTT17=
EXTT18=
EXTT19=
EXTT20=
PLAYORDER=
